<svg xmlns="http://www.w3.org/2000/svg" viewBox="0 0 209 200" >
    <path stroke="#fa0000" d="M80 30h60M80 31h60M80 32h60M80 33h60M80 34h60M80 35h60M80 36h60M80 37h60M80 38h60M80 39h60M50 40h100M50 41h100M50 42h100M50 43h100M50 44h100M50 45h100M50 46h100M50 47h100M50 48h100M50 49h100M60 100h60M60 101h60M60 102h60M60 103h60M60 104h60M60 105h60M60 106h60M60 107h60M60 108h60M60 109h60M60 110h70M60 111h70M60 112h70M60 113h70M60 114h70M60 115h70M60 116h70M60 117h70M60 118h70M60 119h70M60 120h70M60 121h70M60 122h70M60 123h70M60 124h70M60 125h70M60 126h70M60 127h70M60 128h70M60 129h70" />
    <path stroke="#fab152" d="M70 50h10M90 50h30M70 51h10M90 51h30M70 52h10M90 52h30M70 53h10M90 53h30M70 54h10M90 54h30M70 55h10M90 55h30M70 56h10M90 56h30M70 57h10M90 57h30M70 58h10M90 58h30M70 59h10M90 59h30M50 60h30M90 60h40M140 60h10M50 61h30M90 61h40M140 61h10M50 62h30M90 62h40M140 62h10M50 63h30M90 63h40M140 63h10M50 64h30M90 64h40M140 64h10M50 65h30M90 65h40M140 65h10M50 66h30M90 66h40M140 66h10M50 67h30M90 67h40M140 67h10M50 68h30M90 68h40M140 68h10M50 69h30M90 69h40M140 69h10M40 70h30M80 70h40M140 70h10M40 71h30M80 71h40M140 71h10M40 72h30M80 72h40M140 72h10M40 73h30M80 73h40M140 73h10M40 74h30M80 74h40M140 74h10M40 75h30M80 75h40M140 75h10M40 76h30M80 76h40M140 76h10M40 77h30M80 77h40M140 77h10M40 78h30M80 78h40M140 78h10M40 79h30M80 79h40M140 79h10M90 80h50M90 81h50M90 82h50M90 83h50M90 84h50M90 85h50M90 86h50M90 87h50M90 88h50M90 89h50M60 90h80M60 91h80M60 92h80M60 93h80M60 94h80M60 95h80M60 96h80M60 97h80M60 98h80M60 99h80M40 100h20M40 101h20M40 102h20M40 103h20M40 104h20M40 105h20M40 106h20M40 107h20M40 108h20M40 109h20M30 110h30M30 111h30M30 112h30M30 113h30M30 114h30M30 115h30M30 116h30M30 117h30M30 118h30M30 119h30M30 120h30M30 121h30M30 122h30M30 123h30M30 124h30M30 125h30M30 126h30M30 127h30M30 128h30M30 129h30" />
    <path stroke="#000000" d="M80 50h10M80 51h10M80 52h10M80 53h10M80 54h10M80 55h10M80 56h10M80 57h10M80 58h10M80 59h10M80 60h10M80 61h10M80 62h10M80 63h10M80 64h10M80 65h10M80 66h10M80 67h10M80 68h10M80 69h10M70 70h10M70 71h10M70 72h10M70 73h10M70 74h10M70 75h10M70 76h10M70 77h10M70 78h10M70 79h10M50 80h40M50 81h40M50 82h40M50 83h40M50 84h40M50 85h40M50 86h40M50 87h40M50 88h40M50 89h40" />
    <path stroke="#c25a00" d="M120 50h30M120 51h30M120 52h30M120 53h30M120 54h30M120 55h30M120 56h30M120 57h30M120 58h30M120 59h30M130 60h10M150 60h10M130 61h10M150 61h10M130 62h10M150 62h10M130 63h10M150 63h10M130 64h10M150 64h10M130 65h10M150 65h10M130 66h10M150 66h10M130 67h10M150 67h10M130 68h10M150 68h10M130 69h10M150 69h10M120 70h20M150 70h10M120 71h20M150 71h10M120 72h20M150 72h10M120 73h20M150 73h10M120 74h20M150 74h10M120 75h20M150 75h10M120 76h20M150 76h10M120 77h20M150 77h10M120 78h20M150 78h10M120 79h20M150 79h10M140 80h20M140 81h20M140 82h20M140 83h20M140 84h20M140 85h20M140 86h20M140 87h20M140 88h20M140 89h20M30 140h10M30 141h10M30 142h10M30 143h10M30 144h10M30 145h10M30 146h10M30 147h10M30 148h10M30 149h10M30 150h20M30 151h20M30 152h20M30 153h20M30 154h20M30 155h20M30 156h20M30 157h20M30 158h20M30 159h20M30 160h20M30 161h20M30 162h20M30 163h20M30 164h20M30 165h20M30 166h20M30 167h20M30 168h20M30 169h20M30 170h20M30 171h20M30 172h20M30 173h20M30 174h20M30 175h20M30 176h20M30 177h20M30 178h20M30 179h20" />
    <path stroke="#036efa" d="M120 100h20M120 101h20M120 102h20M120 103h20M120 104h20M120 105h20M120 106h20M120 107h20M120 108h20M120 109h20M130 110h20M130 111h20M130 112h20M130 113h20M130 114h20M130 115h20M130 116h20M130 117h20M130 118h20M130 119h20M130 120h30M130 121h30M130 122h30M130 123h30M130 124h30M130 125h30M130 126h30M130 127h30M130 128h30M130 129h30M80 130h10M100 130h60M80 131h10M100 131h60M80 132h10M100 132h60M80 133h10M100 133h60M80 134h10M100 134h60M80 135h10M100 135h60M80 136h10M100 136h60M80 137h10M100 137h60M80 138h10M100 138h60M80 139h10M100 139h60M80 140h80M80 141h80M80 142h80M80 143h80M80 144h80M80 145h80M80 146h80M80 147h80M80 148h80M80 149h80M50 150h110M50 151h110M50 152h110M50 153h110M50 154h110M50 155h110M50 156h110M50 157h110M50 158h110M50 159h110M50 160h100M50 161h100M50 162h100M50 163h100M50 164h100M50 165h100M50 166h100M50 167h100M50 168h100M50 169h100M50 170h90M50 171h90M50 172h90M50 173h90M50 174h90M50 175h90M50 176h90M50 177h90M50 178h90M50 179h90" />
    <path stroke="#fafa00" d="M90 130h10M90 131h10M90 132h10M90 133h10M90 134h10M90 135h10M90 136h10M90 137h10M90 138h10M90 139h10" />
</svg>