<svg xmlns="http://www.w3.org/2000/svg" viewBox="0 -0.5 100 100">
<path stroke="#263238" d="M20 4h60M20 5h60M20 6h60M20 7h60M20 8h60M20 9h60M20 10h60M20 11h60M14 12h73M14 13h73M14 14h73M14 15h73M14 16h73M14 17h73M14 18h73M6 19h14M35 19h23M73 19h22M6 20h14M35 20h23M73 20h22M6 21h14M35 21h23M73 21h22M6 22h14M35 22h23M73 22h22M6 23h14M35 23h23M73 23h22M6 24h14M35 24h23M73 24h22M6 25h14M35 25h23M73 25h22M6 26h14M35 26h23M73 26h22M6 27h8M43 27h7M80 27h15M6 28h8M43 28h7M80 28h15M6 29h8M43 29h7M80 29h15M6 30h8M43 30h7M80 30h15M6 31h8M43 31h7M80 31h15M6 32h8M43 32h7M80 32h15M6 33h8M43 33h7M80 33h15M6 34h8M43 34h7M80 34h15M6 35h8M43 35h7M80 35h15M6 36h8M43 36h7M80 36h15M6 37h8M43 37h7M80 37h15M6 38h8M43 38h7M80 38h15M6 39h8M43 39h7M80 39h15M6 40h8M43 40h7M80 40h15M6 41h8M43 41h7M80 41h15M6 42h8M43 42h7M80 42h15M6 43h8M43 43h7M80 43h15M6 44h8M43 44h7M80 44h15M6 45h8M43 45h7M80 45h15M6 46h8M43 46h7M80 46h15M6 47h8M43 47h7M80 47h15M6 48h14M35 48h23M73 48h22M6 49h14M35 49h23M73 49h22M6 50h14M35 50h23M73 50h22M6 51h14M35 51h23M73 51h22M6 52h14M35 52h23M73 52h22M6 53h14M35 53h23M73 53h22M6 54h14M35 54h23M73 54h22M6 55h14M35 55h23M73 55h22M6 56h89M6 57h89M6 58h89M6 59h89M6 60h89M6 61h89M6 62h89M6 63h89M6 64h89M6 65h89M6 66h89M6 67h89M6 68h89M6 69h89M6 70h89M6 71h89M6 72h89M6 73h89M6 74h89M6 75h89M6 76h89M6 77h89M6 78h89M6 79h89M6 80h89M6 81h89M6 82h89M6 83h89M6 84h89M14 85h14M35 85h15M58 85h15M80 85h15M14 86h14M35 86h15M58 86h15M80 86h15M14 87h14M35 87h15M58 87h15M80 87h15M14 88h14M35 88h15M58 88h15M80 88h15M14 89h14M35 89h15M58 89h15M80 89h15M14 90h14M35 90h15M58 90h15M80 90h15M14 91h14M35 91h15M58 91h15M80 91h15M14 92h14M35 92h15M58 92h15M80 92h15M20 93h8M43 93h7M66 93h7M87 93h8M20 94h8M43 94h7M66 94h7M87 94h8M20 95h8M43 95h7M66 95h7M87 95h8M20 96h8M43 96h7M66 96h7M87 96h8M20 97h8M43 97h7M66 97h7M87 97h8M20 98h8M43 98h7M66 98h7M87 98h8M20 99h8M43 99h7M66 99h7M87 99h8" />
<path stroke="#ffffff" d="M20 19h15M58 19h15M20 20h15M58 20h15M20 21h15M58 21h15M20 22h15M58 22h15M20 23h15M58 23h15M20 24h15M58 24h15M20 25h15M58 25h15M20 26h15M58 26h15M14 27h29M50 27h30M14 28h29M50 28h30M14 29h29M50 29h30M14 30h29M50 30h30M14 31h29M50 31h30M14 32h29M50 32h30M14 33h29M50 33h30M28 34h15M66 34h14M28 35h15M66 35h14M28 36h15M66 36h14M28 37h15M66 37h14M28 38h15M66 38h14M28 39h15M66 39h14M28 40h15M66 40h14M28 41h15M66 41h14M28 42h15M66 42h14M28 43h15M66 43h14M28 44h15M66 44h14M28 45h15M66 45h14M28 46h15M66 46h14M28 47h15M66 47h14M20 48h15M58 48h15M20 49h15M58 49h15M20 50h15M58 50h15M20 51h15M58 51h15M20 52h15M58 52h15M20 53h15M58 53h15M20 54h15M58 54h15M20 55h15M58 55h15" />
<path stroke="#000000" d="M14 34h14M50 34h16M14 35h14M50 35h16M14 36h14M50 36h16M14 37h14M50 37h16M14 38h14M50 38h16M14 39h14M50 39h16M14 40h14M50 40h16M14 41h14M50 41h16M14 42h14M50 42h16M14 43h14M50 43h16M14 44h14M50 44h16M14 45h14M50 45h16M14 46h14M50 46h16M14 47h14M50 47h16" />
</svg>