<svg xmlns="http://www.w3.org/2000/svg" viewBox="0 0 100 100">
    <path stroke="#263238" d="M29 3h37M29 4h37M29 5h37M29 6h37M29 7h37M29 8h37M29 9h37M14 10h67M14 11h67M14 12h67M14 13h67M14 14h67M14 15h67M14 16h67M14 17h67M6 18h30M44 18h45M6 19h30M44 19h45M6 20h30M44 20h45M6 21h30M44 21h45M6 22h30M44 22h45M6 23h30M44 23h45M6 24h30M44 24h45M14 25h22M44 25h45M14 26h22M44 26h45M14 27h22M44 27h45M14 28h22M44 28h45M14 29h22M44 29h45M14 30h22M44 30h45M14 31h22M44 31h45M14 32h22M44 32h45M29 33h67M29 34h67M29 35h67M29 36h67M29 37h67M29 38h67M29 39h67M44 40h52M44 41h52M44 42h52M44 43h52M44 44h52M44 45h52M44 46h52M44 47h52M51 48h45M51 49h45M51 50h45M51 51h45M51 52h45M51 53h45M51 54h45M44 55h52M44 56h52M44 57h52M44 58h52M44 59h52M44 60h52M44 61h52M36 62h60M36 63h60M36 64h60M36 65h60M36 66h60M36 67h60M36 68h60M36 69h60M21 70h68M21 71h68M21 72h68M21 73h68M21 74h68M21 75h68M21 76h68M6 77h83M6 78h83M6 79h83M6 80h83M6 81h83M6 82h83M6 83h83M6 84h83M14 85h67M14 86h67M14 87h67M14 88h67M14 89h67M14 90h67M14 91h67M29 92h37M29 93h37M29 94h37M29 95h37M29 96h37M29 97h37M29 98h37" />
    <path stroke="#ffffff" d="M36 18h8M36 19h8M36 20h8M36 21h8M36 22h8M36 23h8M36 24h8M36 25h8M36 26h8M36 27h8M36 28h8M36 29h8M36 30h8M36 31h8M36 32h8" />
</svg>